<?xml version="1.0" encoding="utf-8"?>
<!-- Generator: Adobe Illustrator 15.0.2, SVG Export Plug-In . SVG Version: 6.00 Build 0)  -->
<!DOCTYPE svg PUBLIC "-//W3C//DTD SVG 1.1//EN" "http://www.w3.org/Graphics/SVG/1.1/DTD/svg11.dtd">
<svg version="1.1" id="Layer_1" xmlns="http://www.w3.org/2000/svg" xmlns:xlink="http://www.w3.org/1999/xlink" x="0px" y="0px"
	 width="677.361px" height="612px" viewBox="0 0 677.361 612" enable-background="new 0 0 677.361 612" xml:space="preserve">
<path fill-rule="evenodd" clip-rule="evenodd" fill="#407394" d="M585.728,343.514c0-0.019,0-0.019,0-0.036
	c0-0.6-0.063-1.19-0.193-1.785c-2.588-24.068-3.998-51.379-18.76-58.987c-13.17-6.797-29.297-11.861-43.806-16.434
	c-15.419-4.854-26.439-8.433-33.637-14.599l0.202-0.047c-0.901-0.782-1.717-1.62-2.492-2.483l-0.067-0.124l-1.1-1.255
	c-2.754-3.536-4.665-7.858-5.774-13.382c7.73-9.778,12.891-23.255,13.44-38.257c2.43-1.873,4.593-5.972,5.513-11.041
	c1.303-7.211,4.489-13.481-2.397-14.77c0.117-0.297,0.198-0.563,0.274-0.726c2.723-6.774,6.27-13.053,7.636-20.301
	c1.744-9.159,0.04-21.211-11.043-31.045c-5.773-5.139-13.175-8.275-21.127-8.56c-5.893-6.932-12.782-9.05-22.687-9.149
	c-3.259-0.036-6.858,0.14-10.854,0.455c-11.691,0.897-23.72,10.986-30.553,18.709c-5.077,5.729-5.853,13.918-4.978,22.807
	c0.586,8.226,2.83,17.207,4.448,25.452c0.086,0.509,0.162,1.293,0.226,2.231c-0.167,0.005-0.334,0.014-0.521,0.041
	c-7.443,1.108-4.127,7.5-2.802,14.855c0.248,1.366,0.586,2.65,1.003,3.843c1.113,3.392,2.815,6.037,4.641,7.351
	c0.212,5.963,1.088,11.667,2.533,16.992c2.282,8.683,6.039,16.354,10.826,22.453c-1.641,6.078-4.417,10.552-8.544,14.085l0.31,0.077
	c-0.226,0.194-0.422,0.386-0.672,0.577c-2.227,1.667-5.184,3.153-7.561,4.509l-2.549,3.167c-6.188,2.803-13.802,5.247-22.983,8.135
	c-14.495,4.573-30.626,9.637-43.803,16.434c-15.131,7.811-16.235,36.338-18.964,60.835h0.043
	c0.115,18.345,59.786,33.209,133.384,33.209c73.602,0,133.273-14.864,133.386-33.209l0,0V343.514L585.728,343.514z"/>
<g>
	<path fill="#F3B71F" d="M677.361,411.602V79.521c0-43.385-35.176-78.56-78.559-78.56H127.919c-43.389,0-78.56,35.174-78.56,78.56
		v332.08c0,43.382,35.171,78.559,78.56,78.559h470.884C642.186,490.16,677.361,454.983,677.361,411.602z M140.509,434.393
		c-20.596,0-37.289-16.699-37.289-37.291V84.863c0-20.596,16.693-37.29,37.289-37.29h447.473c20.591,0,37.288,16.694,37.288,37.29
		v312.239c0,20.592-16.697,37.291-37.288,37.291H140.509z"/>
</g>
<rect x="140.561" y="125.669" fill-rule="evenodd" clip-rule="evenodd" fill="#A3C5D8" width="170.029" height="33.591"/>
<rect x="140.561" y="180.807" fill-rule="evenodd" clip-rule="evenodd" fill="#A3C5D8" width="170.029" height="24.361"/>
<rect x="140.561" y="233.903" fill-rule="evenodd" clip-rule="evenodd" fill="#A3C5D8" width="170.029" height="28.976"/>
<rect x="140.561" y="284.672" fill-rule="evenodd" clip-rule="evenodd" fill="#A3C5D8" width="82.381" height="28.976"/>
<g>
	<path fill="#407394" d="M189.077,473.623c-2.113,8.568,3.439,16.94,12.013,19.062l162.857,40.231
		c-0.844,4.694,1.658,9.35,6.342,10.513l219.035,54.111c4.877,1.204,9.992-1.884,11.205-6.792l3.602-14.586l2.087-8.405
		l3.752-15.189c1.196-4.863-1.88-9.997-6.763-11.203l-219.05-54.116c-4.674-1.153-9.056,1.808-10.488,6.345l-162.871-40.238
		c-8.557-2.114-17.517,3.276-19.63,11.858L189.077,473.623z"/>
	<path fill="#407394" d="M188.502,313.22c81.024,20.021,130.479,101.932,110.462,182.953
		c-20.015,81.018-101.916,130.437-182.938,110.416C35.029,586.579-14.424,504.712,5.602,423.696
		C25.616,342.677,107.509,293.211,188.502,313.22z"/>
	<path fill="#A3C5D8" d="M181.38,342.053c65.128,16.096,104.869,81.896,88.784,147.003c-16.086,65.103-81.9,104.841-147.023,88.752
		c-65.083-16.084-104.825-81.892-88.739-146.994C50.483,365.685,116.299,325.976,181.38,342.053z"/>
</g>
</svg>
